<?xml version="1.0" encoding="utf-8"?>
<!-- Generator: Adobe Illustrator 22.0.1, SVG Export Plug-In . SVG Version: 6.00 Build 0)  -->
<svg version="1.1" id="Layer_1" xmlns="http://www.w3.org/2000/svg" xmlns:xlink="http://www.w3.org/1999/xlink" x="0px" y="0px"
	 viewBox="0 0 89 81.4" style="enable-background:new 0 0 89 81.4;" xml:space="preserve">
<style type="text/css">
	.st0{fill:#FFFFFF;}
	.st1{fill:#0F0F0F;}
	.st2{fill:#FBB716;}
	.st3{fill:#010101;}
	.st4{opacity:0.5;}
	.st5{opacity:0.1;fill:none;stroke:#010101;stroke-width:0.3;stroke-miterlimit:10;}
	.st6{opacity:0.1;fill:none;stroke:#010101;stroke-width:0.3033;stroke-miterlimit:10;}
	.st7{fill:#F9F9FA;}
</style>
<g>
	<circle class="st2" cx="65.6" cy="36.6" r="21.9"/>
	<path class="st3" d="M34.4,18.1c0-1.2,1-2.1,2.1-2.1h15.6c1.2,0,2.1,1,2.1,2.1c0,1.2-1,2.1-2.1,2.1H36.5
		C35.3,20.2,34.4,19.3,34.4,18.1z M89,44.2c0,1.2-1,2.1-2.1,2.1h-3.4v6.2c0,1.2-1,2.1-2.1,2.1h-3.7V79c0,1.2-1,2.1-2.1,2.1h-5.7
		c-1.2,0-2.1-1-2.1-2.1s1-2.1,2.1-2.1h3.5V54.6H15.5v22.2H19c1.2,0,2.1,1,2.1,2.1S20.1,81,19,81h-5.7c-1.2,0-2.1-1-2.1-2.1V54.6H7.7
		c-1.2,0-2.1-1-2.1-2.1v-6.2H2.1c-1.2,0-2.1-1-2.1-2.1c0-1.2,1-2.1,2.1-2.1h15.3l1.8-10.2c0.5-2.6,2.8-4.5,5.4-4.5h1.8l1.2-20
		C27.8,3.3,31.3,0,35.5,0h8.3h1.5h8.2c4.2,0,7.6,3.2,7.9,7.4l1.2,20h1.8c2.7,0,4.9,1.9,5.4,4.5l1.8,10.2h15.3C88,42,89,43,89,44.2z
		 M62.8,31.6L63.5,42h3.8l-1.7-9.4c-0.1-0.6-0.6-1-1.2-1H62.8z M31.9,7.5L29.8,42h29.4L57.1,7.5c-0.1-1.9-1.7-3.4-3.6-3.4h-8.3h-1.5
		h-8.2C33.6,4.1,32,5.6,31.9,7.5z M21.7,42h3.8l0.7-10.4h-1.5c-0.6,0-1.1,0.4-1.2,1L21.7,42z M79.2,46.3h-9.3l0,0l0,0H19.2l0,0l0,0
		H9.9v4.1h69.4v-4.1H79.2z M51.5,71.2h-5.1V59.4c0-1.2-1-2.1-2.1-2.1c-1.2,0-2.1,1-2.1,2.1v11.8h-4.8c-1.2,0-2.3,1-2.3,2.2v5.9
		c0,1.2,1,2.1,2.1,2.1s2.1-1,2.1-2.1v-3.8h3v3.8c0,1.2,1,2.1,2.1,2.1c1.2,0,2.1-1,2.1-2.1v-3.8h2.6v3.8c0,1.2,1,2.1,2.1,2.1
		c1.2,0,2.1-1,2.1-2.1v-5.9C53.5,72.1,52.7,71.2,51.5,71.2z M27.7,57.5c-0.6,0-1.1,0.2-1.5,0.6c-0.4,0.4-0.6,0.9-0.6,1.5
		s0.2,1.1,0.6,1.5c0.4,0.4,0.9,0.6,1.5,0.6s1.1-0.2,1.5-0.6s0.6-0.9,0.6-1.5s-0.2-1.1-0.6-1.5C28.8,57.7,28.3,57.5,27.7,57.5z
		 M38.3,59.6c0-1.2-1-2.1-2.1-2.1c-1.2,0-2.1,1-2.1,2.1c0,1.2,1,2.1,2.1,2.1C37.4,61.8,38.3,60.8,38.3,59.6z M53.2,57.5
		c-1.2,0-2.1,1-2.1,2.1c0,1.2,0.9,2.1,2.1,2.1c1.2,0,2.1-1,2.1-2.1S54.4,57.5,53.2,57.5z M60.9,57.5c-0.6,0-1.1,0.2-1.5,0.6
		s-0.6,0.9-0.6,1.5s0.2,1.1,0.6,1.5s0.9,0.6,1.5,0.6s1.1-0.2,1.5-0.6s0.6-0.9,0.6-1.5s-0.2-1.1-0.6-1.5S61.4,57.5,60.9,57.5z"/>
</g>
</svg>
